<svg xmlns="http://www.w3.org/2000/svg" width="20" height="20" fill="none" viewBox="0 0 20 20"><g clip-path="url(#clip0_612_4920)"><path stroke="#01112C" stroke-linecap="round" stroke-linejoin="round" stroke-width="1.5" d="M9.99999 18.3333C14.6024 18.3333 18.3333 14.6024 18.3333 9.99999C18.3333 5.39762 14.6024 1.66666 9.99999 1.66666C5.39762 1.66666 1.66666 5.39762 1.66666 9.99999C1.66666 14.6024 5.39762 18.3333 9.99999 18.3333Z"/><path stroke="#01112C" stroke-linecap="round" stroke-linejoin="round" stroke-width="1.5" d="M1.66666 10H18.3333"/><path stroke="#01112C" stroke-linecap="round" stroke-linejoin="round" stroke-width="1.5" d="M9.99999 1.66666C12.0844 3.94862 13.269 6.91002 13.3333 9.99999C13.269 13.09 12.0844 16.0514 9.99999 18.3333C7.91559 16.0514 6.73103 13.09 6.66666 9.99999C6.73103 6.91002 7.91559 3.94862 9.99999 1.66666V1.66666Z"/></g><defs><clipPath id="clip0_612_4920"><rect width="20" height="20" fill="#fff"/></clipPath></defs></svg>